<svg xmlns="http://www.w3.org/2000/svg" viewBox="0 0 215.77 205.29"><defs><style>.cls-1{fill:#364d5c;}.cls-2{fill:#2a37a8;}.cls-3{fill:#243148;}.cls-4{opacity:0.2;}.cls-5{fill:#fff;}.cls-6,.cls-9{opacity:0.3;}.cls-7,.cls-9{fill:#13203b;}.cls-8{fill:#6163e7;}.cls-10{opacity:0.1;}.cls-11{fill:#e9ae2a;}.cls-12,.cls-18{fill:#d77f1e;}.cls-12{opacity:0.5;}.cls-13{fill:#e3e2e3;}.cls-14{fill:#5b1d3e;}.cls-15{fill:#ebb991;}.cls-16{fill:#2f4066;}.cls-17{fill:#e2966e;}.cls-19{fill:#de6e59;}.cls-20,.cls-21{fill:#538367;}.cls-21{font-size:6.9px;font-family:Poppins-SemiBold, Poppins;font-weight:600;}</style></defs><title>Asset4</title><g id="Layer_2" data-name="Layer 2"><g id="BACKGROUND"><path class="cls-1" d="M201.09,182a99.09,99.09,0,1,0-184.16,0Z"/><ellipse class="cls-2" cx="105.93" cy="200.8" rx="105.93" ry="4.49"/><rect class="cls-3" x="41.36" y="33.91" width="117.98" height="166.69" rx="4.68"/><polygon class="cls-4" points="49.79 188.41 150.91 193.76 150.91 188.41 49.79 188.41"/><rect class="cls-5" x="49.79" y="42.14" width="101.12" height="146.26"/><g class="cls-6"><path class="cls-7" d="M88.09,74.38h50.3A1.39,1.39,0,0,0,139.78,73h0a1.39,1.39,0,0,0-1.39-1.4H88.09a1.4,1.4,0,0,0-1.4,1.4h0A1.4,1.4,0,0,0,88.09,74.38Z"/></g><g class="cls-6"><path class="cls-7" d="M88.09,79.26h50.3a1.4,1.4,0,0,0,1.39-1.4h0a1.4,1.4,0,0,0-1.39-1.4H88.09a1.4,1.4,0,0,0-1.4,1.4h0A1.4,1.4,0,0,0,88.09,79.26Z"/></g><g class="cls-6"><path class="cls-7" d="M61.86,81.33V67.44a1.92,1.92,0,0,1,1.92-1.92H77.66a1.93,1.93,0,0,1,1.93,1.92V81.33a1.93,1.93,0,0,1-1.93,1.92H63.78A1.92,1.92,0,0,1,61.86,81.33ZM63.78,67a.41.41,0,0,0-.41.4V81.33a.41.41,0,0,0,.41.4H77.66a.4.4,0,0,0,.41-.4V67.44a.4.4,0,0,0-.41-.4Z"/></g><path class="cls-8" d="M69.89,79.14h-.12a1.3,1.3,0,0,1-1-.64,26.7,26.7,0,0,0-3.2-4.32,1.28,1.28,0,0,1,1.87-1.75,28.69,28.69,0,0,1,2.63,3.32c2.28-2.42,7.54-7.62,12.78-9.89a1.28,1.28,0,1,1,1,2.35c-6.27,2.72-12.94,10.41-13,10.49A1.3,1.3,0,0,1,69.89,79.14Z"/><path class="cls-9" d="M88.09,103.71h50.3a1.4,1.4,0,0,0,1.39-1.4h0a1.4,1.4,0,0,0-1.39-1.4H88.09a1.4,1.4,0,0,0-1.4,1.4h0A1.4,1.4,0,0,0,88.09,103.71Z"/><path class="cls-9" d="M88.09,108.58h50.3a1.39,1.39,0,0,0,1.39-1.4h0a1.4,1.4,0,0,0-1.39-1.4H88.09a1.4,1.4,0,0,0-1.4,1.4h0A1.4,1.4,0,0,0,88.09,108.58Z"/><g class="cls-6"><path class="cls-7" d="M61.86,110.65V96.76a1.92,1.92,0,0,1,1.92-1.92H77.66a1.93,1.93,0,0,1,1.93,1.92v13.89a1.93,1.93,0,0,1-1.93,1.92H63.78A1.92,1.92,0,0,1,61.86,110.65Zm1.92-14.29a.41.41,0,0,0-.41.4v13.89a.42.42,0,0,0,.41.41H77.66a.41.41,0,0,0,.41-.41V96.76a.4.4,0,0,0-.41-.4Z"/></g><path class="cls-8" d="M69.89,108.35h-.12a1.27,1.27,0,0,1-1-.64,27.79,27.79,0,0,0-3.2-4.32,1.28,1.28,0,0,1,1.87-1.75A29.76,29.76,0,0,1,70.07,105c2.28-2.42,7.54-7.61,12.78-9.89a1.29,1.29,0,1,1,1,2.36c-6.27,2.72-12.94,10.41-13,10.48A1.27,1.27,0,0,1,69.89,108.35Z"/><path class="cls-9" d="M88.09,133h50.3a1.4,1.4,0,0,0,1.39-1.4h0a1.4,1.4,0,0,0-1.39-1.4H88.09a1.4,1.4,0,0,0-1.4,1.4h0A1.4,1.4,0,0,0,88.09,133Z"/><path class="cls-9" d="M88.09,137.9h50.3a1.39,1.39,0,0,0,1.39-1.39h0a1.39,1.39,0,0,0-1.39-1.4H88.09a1.4,1.4,0,0,0-1.4,1.4h0A1.4,1.4,0,0,0,88.09,137.9Z"/><g class="cls-6"><path class="cls-7" d="M61.86,140V126.09a1.92,1.92,0,0,1,1.92-1.92H77.66a1.93,1.93,0,0,1,1.93,1.92V140a1.93,1.93,0,0,1-1.93,1.92H63.78A1.92,1.92,0,0,1,61.86,140Zm1.92-14.29a.41.41,0,0,0-.41.41V140a.41.41,0,0,0,.41.41H77.66a.41.41,0,0,0,.41-.41V126.09a.41.41,0,0,0-.41-.41Z"/></g><path class="cls-8" d="M69.89,138.33h-.12a1.3,1.3,0,0,1-1-.64,27.24,27.24,0,0,0-3.2-4.32,1.28,1.28,0,1,1,1.87-1.75,29.76,29.76,0,0,1,2.63,3.32c2.28-2.42,7.54-7.62,12.78-9.89a1.29,1.29,0,1,1,1,2.36c-6.27,2.71-12.94,10.4-13,10.48A1.27,1.27,0,0,1,69.89,138.33Z"/><g class="cls-6"><path class="cls-7" d="M88.09,162.35h50.3a1.39,1.39,0,0,0,1.39-1.4h0a1.39,1.39,0,0,0-1.39-1.39H88.09a1.4,1.4,0,0,0-1.4,1.39h0A1.4,1.4,0,0,0,88.09,162.35Z"/></g><g class="cls-6"><path class="cls-7" d="M88.09,167.23h50.3a1.4,1.4,0,0,0,1.39-1.4h0a1.4,1.4,0,0,0-1.39-1.4H88.09a1.4,1.4,0,0,0-1.4,1.4h0A1.4,1.4,0,0,0,88.09,167.23Z"/></g><g class="cls-6"><path class="cls-7" d="M61.86,169.3V155.41a1.92,1.92,0,0,1,1.92-1.92H77.66a1.93,1.93,0,0,1,1.93,1.92V169.3a1.93,1.93,0,0,1-1.93,1.92H63.78A1.92,1.92,0,0,1,61.86,169.3ZM63.78,155a.42.42,0,0,0-.41.41V169.3a.41.41,0,0,0,.41.4H77.66a.4.4,0,0,0,.41-.4V155.41a.41.41,0,0,0-.41-.41Z"/></g><path class="cls-8" d="M69.89,167.65h-.12a1.29,1.29,0,0,1-1-.63,26.7,26.7,0,0,0-3.2-4.32,1.28,1.28,0,1,1,1.87-1.76,30.9,30.9,0,0,1,2.63,3.32c2.28-2.42,7.54-7.61,12.78-9.88a1.28,1.28,0,1,1,1,2.35c-6.27,2.72-12.94,10.41-13,10.48A1.27,1.27,0,0,1,69.89,167.65Z"/><path class="cls-10" d="M123.08,41.86v4.2a3.23,3.23,0,0,1-3.23,3.24H77.6a3.24,3.24,0,0,1-3.24-3.24v-4.2Z"/><path class="cls-11" d="M117.93,32.59H106.81a9.57,9.57,0,0,0,1.59-5.32,9.68,9.68,0,1,0-17.77,5.32H79.51a2.77,2.77,0,0,0-2.76,2.76v8.13a2.77,2.77,0,0,0,2.76,2.76h38.42a2.76,2.76,0,0,0,2.76-2.76V35.35A2.76,2.76,0,0,0,117.93,32.59ZM98.72,23.13a4.14,4.14,0,1,1-4.14,4.14A4.15,4.15,0,0,1,98.72,23.13Z"/><path class="cls-12" d="M120.69,39v4.52a2.76,2.76,0,0,1-2.76,2.76H79.51a2.77,2.77,0,0,1-2.76-2.76V39Z"/><path class="cls-13" d="M178.47,65.63s-7.07,11.54-13.21,22.63L152.41,98.7l-.13,5.7s10-4.33,16.68-10.85l9.95-13.67S180.41,71.88,178.47,65.63Z"/><path class="cls-14" d="M173.36,193.59c1.29-1.6,2.47-2.94,2.92-3.44.6-.67,2.57-1.05,4.05-1.25h0c.88-.06,1.79,1,2.08,1.75a8.21,8.21,0,0,1,.45,3.29c-.12,2-.29,5.08-.3,7.25l-1.84.1-.43-5.16s-6.42,5.94-10.33,5.74C167.32,201.74,170.57,197.05,173.36,193.59Z"/><path class="cls-15" d="M175.1,194.33c2.5-1.1,4.37-3.91,5.23-5.43-1.48.2-3.45.58-4.05,1.25-.45.5-1.63,1.84-2.92,3.44C173.43,194.43,173.92,194.86,175.1,194.33Z"/><path class="cls-3" d="M190.26,111.06l-6.54,41.36c1.82,4.07,2.05,12.83.13,21.56-1,4.72-1.91,12.31-2.31,15.8a17.14,17.14,0,0,1-5,.16l-2.69-31.3c0-18.81-.33-30.13,4-47.94Z"/><path class="cls-14" d="M186.77,193.59c1.29-1.6,2.47-2.94,2.92-3.44.6-.67,2.57-1.05,4.06-1.25h0c.88-.06,1.78,1,2.07,1.75a8,8,0,0,1,.45,3.29c-.12,2-.29,5.08-.3,7.25l-1.83.1-.43-5.16s-6.43,5.94-10.34,5.74C180.73,201.74,184,197.05,186.77,193.59Z"/><path class="cls-15" d="M188.52,194.33c2.5-1.1,4.36-3.91,5.23-5.43-1.49.2-3.46.58-4.06,1.25-.45.5-1.63,1.84-2.92,3.44C186.85,194.43,187.33,194.86,188.52,194.33Z"/><path class="cls-16" d="M200.44,109.92c4,3.26.48,22.56-3.31,42.5,1.82,4.07,2.05,12.83.13,21.56-1,4.72-1.9,12.31-2.31,15.8a17.14,17.14,0,0,1-5,.16l-2.69-31.3c0-18.81-2.11-31.35.66-49.12Z"/><path class="cls-5" d="M178,86.91c-.1,14-.62,21.67-1.24,26.49,6.36,5.5,25.37,1.22,25.37,1.22,1-5.23-1.57-13.74-3.88-24.23l5.56-20.83L200,67.67l-.76-.38h0l-1.66-.83-1.2-.61-4-2-7.22.93-2.5.33-2.22.28-.86.11-1.1.15-.29,11.79a14.06,14.06,0,0,0-1.46,5.24,5.48,5.48,0,0,0,1.12,3.51h0l0,0,.11.14v.58Z"/><path class="cls-15" d="M185.15,64.76c.68,1.94,1.38,4.49,4.78,4.54a7.93,7.93,0,0,0,6.46-3.45l-4-2Z"/><path class="cls-13" d="M178,86.33v.58a34,34,0,0,0,7.69,1.76,32.64,32.64,0,0,0,6.21.08.32.32,0,0,0,.29-.35.31.31,0,0,0-.35-.29,32.78,32.78,0,0,1-13.94-1.92Z"/><path class="cls-3" d="M207.29,61.72s-5.72,3-8.78-1.44c-1.77-2.54-1.93-9.25-2.38-13.65-.2-2-.61-3.41-1.54-3.69-3-.91-4.48-5.38-4.48-5.38a8.19,8.19,0,0,1,1.6-1.93c1.68-1.53,4.7-3,9-.55C209.92,40.3,196.59,56.57,207.29,61.72Z"/><path class="cls-5" d="M197.7,48l-1.57-1.32c-.2-2-.61-3.41-1.54-3.69-3-.91-4.48-5.38-4.48-5.38a8.19,8.19,0,0,1,1.6-1.93,8.55,8.55,0,0,1,5.82,4.88C199.42,45,197.7,48,197.7,48Z"/><path class="cls-3" d="M177.44,44a11.19,11.19,0,0,1,9.37-8c7-1.17,13.23,6,11.36,16.23,0,.08,0,.17,0,.26a8,8,0,0,1-12.57,4.77C181.54,54.41,176.31,49.49,177.44,44Z"/><path class="cls-3" d="M178.46,42.34a7.29,7.29,0,0,0-1.59,4.17,6.65,6.65,0,0,0,1.26,3.69Z"/><path class="cls-15" d="M186.74,59.34l.45,4.08.21,1.87c2.45,1.61,6.39-.24,6.39-.24l-.34-7.36c-1.13-.67-3.73.6-5.39,1.17C187.27,59.12,186.74,59.34,186.74,59.34Z"/><path class="cls-17" d="M186.74,59.34l.45,4.08c2.73-.79,4.84-4.76,4.84-4.76l-4,.2C187.27,59.12,186.74,59.34,186.74,59.34Z"/><path class="cls-15" d="M195.53,54.88c-.07,1.47-.2,2.49-.2,2.49h0a5.58,5.58,0,0,1-.53.41c-.31.24-.74.54-1.27.88-2.46,1.55-7,3.75-11.22,2.13-3.78-1.46-4.36-7.85-4.26-12.51v-.13a2.53,2.53,0,0,1,0-.28v-.11c0-.13,0-.26,0-.39s0-.32,0-.48c.07-1.44.2-2.6.28-3.22,0-.32.06-.5.06-.5l8,.45,2.88.16,3.52.2c1.5.81,2.21,3,2.52,5.29A30.9,30.9,0,0,1,195.53,54.88Z"/><path class="cls-3" d="M193.51,58.66c.54-.34,1-.65,1.28-.88s.51-.39.54-.41h0s.13-1,.21-2.49l-1.11.53A7,7,0,0,0,193.51,58.66Z"/><path class="cls-3" d="M184.91,50.48c0,.61.22,1.12.56,1.13s.63-.47.65-1.08-.23-1.11-.56-1.13S184.93,49.87,184.91,50.48Z"/><path class="cls-3" d="M178.91,50.24c0,.61.23,1.11.56,1.13s.63-.47.66-1.08-.23-1.12-.56-1.14S178.94,49.62,178.91,50.24Z"/><path class="cls-3" d="M188.33,49a2.6,2.6,0,0,0-1.89-1.35,4.35,4.35,0,0,0-2.14.12.35.35,0,0,0-.21.44h0a.34.34,0,0,0,.48.2A3.22,3.22,0,0,1,188.33,49Z"/><path class="cls-3" d="M180.64,48.24a.36.36,0,0,1-.31.26.23.23,0,0,1-.16,0,3.43,3.43,0,0,0-2.13-.19v-.13a2.53,2.53,0,0,1,0-.28l.21-.06a4.19,4.19,0,0,1,2.15,0A.34.34,0,0,1,180.64,48.24Z"/><path class="cls-15" d="M193.29,50.6s1.62-2.33,3.2-.89c1.74,1.59.58,6.69-3.08,6.42Z"/><path class="cls-17" d="M193.43,55a.33.33,0,0,0,.27-.26c.4-2.58,2-2.92,2-2.93a.33.33,0,0,0,.26-.38.32.32,0,0,0-.37-.26c-.09,0-2.07.41-2.55,3.47a.32.32,0,0,0,.27.37Z"/><path class="cls-17" d="M195.56,53.46a.34.34,0,0,0,.15-.07.31.31,0,0,0,0-.45,1.83,1.83,0,0,0-1.68-.58h0a.32.32,0,0,0-.26.37.32.32,0,0,0,.37.26h0a1.16,1.16,0,0,1,1.07.34A.32.32,0,0,0,195.56,53.46Z"/><path class="cls-17" d="M181.86,54.8a.38.38,0,0,0,.17-.08.33.33,0,0,0,0-.46l-1-1L182,53a.31.31,0,0,0,.23-.25l.43-2.56a.33.33,0,0,0-.26-.38.32.32,0,0,0-.37.27l-.41,2.36-1.2.34a.32.32,0,0,0-.15.53l1.33,1.39A.32.32,0,0,0,181.86,54.8Z"/><path class="cls-17" d="M183,57.06a4.58,4.58,0,0,0,2.65-1.4.32.32,0,1,0-.47-.44,4.7,4.7,0,0,1-4.52,1.09.31.31,0,0,0-.4.21.31.31,0,0,0,.21.4A5.85,5.85,0,0,0,183,57.06Z"/><path class="cls-17" d="M183.55,58.44a2.69,2.69,0,0,0,1.54-.83.32.32,0,0,0-.05-.45.31.31,0,0,0-.45,0,2.14,2.14,0,0,1-2.11.57.33.33,0,0,0-.38.25.31.31,0,0,0,.25.38A3.09,3.09,0,0,0,183.55,58.44Z"/><path class="cls-3" d="M189.34,43.78c-2.34,1.61-7.13,3.64-11.25,3.11.07-1.44.2-2.6.28-3.22,0-.32.06-.5.06-.5l8,.45Z"/><path class="cls-3" d="M187.39,43.67a4.12,4.12,0,0,0,2.94,4c1.8.58.74,4.41,1.19,4.9,1.08,1.17,1.28-3.33,3.86-3.27C198.18,49.33,194.62,39.86,187.39,43.67Z"/><path class="cls-5" d="M193.47,56.14a.81.81,0,1,0,.84-.77A.81.81,0,0,0,193.47,56.14Z"/><path class="cls-5" d="M215.63,92.8c-.92,3-4.48,13-12.73,19.49l-2.06-4.13s1.37-1.2,4.3-5.76c2.5-3.89,2.94-7.42,4.56-9.83a6,6,0,0,1,.42-.57l-.19-.26c-1.12-1.59-7-10-8.83-14.27l2.67-7.91s8.89,10.53,11.89,21.49A3.25,3.25,0,0,1,215.63,92.8Z"/><path class="cls-13" d="M209.7,92.57a6,6,0,0,1,.42-.57l-.19-.26a5,5,0,0,1,2.45-.13A6.05,6.05,0,0,0,209.7,92.57Z"/><path class="cls-17" d="M201.51,106.19l.93-.59s.27-2.35-.55-2.88a.67.67,0,0,0-.85.1Z"/><path class="cls-15" d="M204.59,107.18a2.67,2.67,0,0,0-2.18-2.16,2.63,2.63,0,0,0-2,.51c-2.19,1.51-3.46,3.42-2.65,4.19.3.29,2-.57,2.89-1.38a13,13,0,0,1-2.38,2.13c-1.19.75,0,2.15,1.46,1.22a8.32,8.32,0,0,0,1.68-1.19,7.73,7.73,0,0,1-1.77,1.51c-.77.36-.14,1.56,1.34.77l1.48-.79-1.4,1.07c-.47.37-.57,1.22.65,1,1-.22,3.5-1,3.51-2.36A33.11,33.11,0,0,0,204.59,107.18Z"/><rect class="cls-11" x="96.6" y="124.28" width="121.76" height="15.18" transform="translate(6.58 271.21) rotate(-82.66)"/><rect class="cls-18" x="101.03" y="131.93" width="121.76" height="1.01" transform="translate(9.88 276.1) rotate(-82.66)"/><rect class="cls-18" x="96.6" y="131.36" width="121.76" height="1.01" transform="translate(6.58 271.21) rotate(-82.66)"/><rect class="cls-18" x="92.17" y="130.79" width="121.76" height="1.01" transform="translate(3.28 266.31) rotate(-82.66)"/><rect class="cls-16" x="146.93" y="181.5" width="6.37" height="15.18" transform="translate(-56.61 313.81) rotate(-82.66)"/><rect class="cls-3" x="148.31" y="183.08" width="3.18" height="15.18" transform="translate(-58.35 314.98) rotate(-82.66)"/><path class="cls-19" d="M157.23,193.21,157,195a7.6,7.6,0,0,1-8.5,6.56h0a7.6,7.6,0,0,1-6.56-8.5l.24-1.8Z"/><polygon class="cls-15" points="157.73 70.52 172.78 72.45 169.62 61.77 168.96 59.55 167.09 53.27 163.9 59.15 162.66 61.44 157.73 70.52"/><path class="cls-3" d="M163.9,59.15a7.64,7.64,0,0,0,2.35.66,5.51,5.51,0,0,0,2.71-.26l-1.87-6.28Z"/><path class="cls-17" d="M154.16,98.43l-1-.43s-.31-2.12.41-2.78a.89.89,0,0,1,1,0Z"/><path class="cls-15" d="M151.28,99.92a2.68,2.68,0,0,1,1.8-2.5,2.73,2.73,0,0,1,2.06.18c2.4,1.14,4,2.81,3.29,3.71-.25.33-2.07-.24-3.07-.9a13.18,13.18,0,0,0,2.69,1.72c1.3.55.39,2.12-1.24,1.44a7.68,7.68,0,0,1-1.85-.91,7.65,7.65,0,0,0,2,1.21c.82.23.39,1.51-1.2,1l-1.58-.54,1.55.83c.53.29.76,1.11-.48,1-1-.06-3.61-.39-3.85-1.76A33.66,33.66,0,0,1,151.28,99.92Z"/><path class="cls-20" d="M34.56,63.72,33.7,60l-3.28.75a8.82,8.82,0,0,0-2-2.84l1.93-3.06-3.27-2.06-2,3.16a8.55,8.55,0,0,0-2.31-.41L22,52.05l-3.77.85L19,56.19a8.67,8.67,0,0,0-2.84,2l-2.68-1.69-2.05,3.27L14.2,61.5a8.48,8.48,0,0,0-.42,3l-3.29.75L11.35,69l3.43-.78a8.63,8.63,0,0,0,2,2.55l-1.94,3.08,3.27,2.06,2.1-3.34a8.83,8.83,0,0,0,2.52.28l.75,3.29,3.76-.86-.78-3.43a8.84,8.84,0,0,0,1.91-1.37l3.16,2,2-3.26-3.06-1.93a8.27,8.27,0,0,0,.56-2.75ZM23.24,67.6a3.54,3.54,0,1,1,2.66-4.23A3.54,3.54,0,0,1,23.24,67.6Z"/><path class="cls-20" d="M18.69,86.9l-.48-2.13-1.86.43a4.83,4.83,0,0,0-1.13-1.61l1.1-1.73-1.85-1.17-1.13,1.79a4.39,4.39,0,0,0-1.3-.23l-.45-2-2.13.49.43,1.86a4.81,4.81,0,0,0-1.61,1.12l-1.51-1L5.6,84.66l1.57,1a5,5,0,0,0-.24,1.68l-1.86.42.49,2.13,1.94-.44a4.66,4.66,0,0,0,1.16,1.44l-1.1,1.75,1.85,1.16L10.6,91.9a4.8,4.8,0,0,0,1.42.16l.43,1.86,2.13-.48-.45-2a4.92,4.92,0,0,0,1.08-.77L17,91.84,18.16,90,16.43,88.9a4.82,4.82,0,0,0,.32-1.56Zm-6.4,2.2a2,2,0,1,1,1.5-2.39A2,2,0,0,1,12.29,89.1Z"/><path class="cls-20" d="M159.27.19,155.41,0l-.17,3.37A8.57,8.57,0,0,0,152,4.51l-2.43-2.68-2.86,2.59,2.5,2.76a8.47,8.47,0,0,0-1,2.12l-3.52-.18L144.46,13l3.36.17A8.59,8.59,0,0,0,149,16.41l-2.35,2.13,2.59,2.86,2.43-2.2a8.59,8.59,0,0,0,2.75,1.2l-.17,3.37,3.86.2.17-3.52a8.82,8.82,0,0,0,3-1.28l2.45,2.7,2.86-2.59-2.65-2.93a8.34,8.34,0,0,0,1-2.35l3.37.17.19-3.86-3.52-.17a8.46,8.46,0,0,0-.8-2.21l2.76-2.5-2.58-2.86L161.59,5a8.82,8.82,0,0,0-2.5-1.28Zm.69,12a3.54,3.54,0,1,1-3.36-3.71A3.55,3.55,0,0,1,160,12.14Z"/><path class="cls-20" d="M177.31,21.73l-2.18-.11-.1,1.91a4.86,4.86,0,0,0-1.84.64l-1.38-1.51-1.62,1.46,1.42,1.57a4.53,4.53,0,0,0-.58,1.19l-2-.1L168.93,29l1.91.1a4.91,4.91,0,0,0,.64,1.85l-1.32,1.2,1.46,1.62L173,32.49a4.91,4.91,0,0,0,1.55.68l-.09,1.9,2.18.11.1-2a4.93,4.93,0,0,0,1.7-.72L179.82,34l1.62-1.46-1.5-1.66a5,5,0,0,0,.54-1.33l1.9.1.11-2.18-2-.1a4.91,4.91,0,0,0-.45-1.25l1.56-1.42-1.46-1.62-1.52,1.38a4.9,4.9,0,0,0-1.42-.73Zm.39,6.76a2,2,0,1,1-1.9-2.1A2,2,0,0,1,177.7,28.49Z"/><text class="cls-21" transform="translate(82.74 58.02)">Check List</text></g></g></svg>