<?xml version="1.0" encoding="utf-8"?>
<!-- Generator: Adobe Illustrator 24.0.1, SVG Export Plug-In . SVG Version: 6.00 Build 0)  -->
<svg version="1.1" id="Layer_1" xmlns="http://www.w3.org/2000/svg" xmlns:xlink="http://www.w3.org/1999/xlink" x="0px" y="0px"
	 viewBox="0 0 1980 1020" style="enable-background:new 0 0 1980 1020;" xml:space="preserve">
<style type="text/css">
	.st0{fill:url(#SVGID_1_);}
	.st1{fill:#4E7CBF;}
	.st2{fill:none;stroke:#4C79BD;stroke-width:1.3664;stroke-miterlimit:10;}
	.st3{fill:#4473B9;}
	.st4{fill:none;stroke:#3E6DB5;stroke-width:1.7113;stroke-miterlimit:10;}
	.st5{fill:#4F7DBF;}
	.st6{fill:none;stroke:#4F7DBF;stroke-width:1.2832;stroke-miterlimit:10;}
	.st7{fill:#84ADDC;}
	.st8{fill:none;stroke:#84ADDC;stroke-width:0.8903;stroke-miterlimit:10;}
	.st9{fill:none;stroke:#3E6DB5;stroke-width:0.8234;stroke-miterlimit:10;}
	.st10{fill:#F9B29C;}
	.st11{fill:#41388C;}
	.st12{fill:#FFFFFF;}
	.st13{fill:#2C8667;}
	.st14{fill:#F8A488;}
	.st15{fill:#F5876E;}
</style>
<g>
	<linearGradient id="SVGID_1_" gradientUnits="userSpaceOnUse" x1="721.8086" y1="487.8742" x2="1252.1499" y2="487.8742">
		<stop  offset="0" style="stop-color:#5BBA47"/>
		<stop  offset="1" style="stop-color:#57BF9A"/>
	</linearGradient>
	<circle class="st0" cx="986.98" cy="487.87" r="265.17"/>
	<g>
		<path class="st1" d="M846.6,768.15c0,0-1.43-121.32,80.5-194.09c37.17-33.01,123.08,9.55,40.64,65.56
			C933.67,662.77,881.75,683.38,846.6,768.15z"/>
		<path class="st2" d="M956.44,597.07c0,0-118.11,77.69-111.62,215.71"/>
	</g>
	<g>
		<path class="st3" d="M819.29,763.94c0,0-4.19-133.07-172.42-198.83c-57.99-22.67-142.49,60.01-22.37,93.98
			C674.15,673.14,744.01,677.09,819.29,763.94z"/>
		<path class="st4" d="M621.11,604.06c0,0,171.08,45.63,217.94,212.22"/>
	</g>
	<g>
		<path class="st5" d="M698.3,486.86c10.91,7.28,14.26,21.42,14.26,21.42s-14.34,2.33-25.25-4.95
			c-10.91-7.28-17.3-16.87-14.26-21.42C676.08,477.36,687.39,479.58,698.3,486.86z"/>
		<path class="st5" d="M723.34,518.03c9.2,3.71,13.85,13.66,13.85,13.66s-10.25,3.93-19.45,0.22c-9.2-3.71-15.4-9.83-13.85-13.66
			C705.43,514.42,714.14,514.32,723.34,518.03z"/>
		<path class="st5" d="M732.96,506.34c3.81,9.16-0.02,19.45-0.02,19.45s-9.99-4.55-13.8-13.71c-3.81-9.16-3.8-17.87,0.02-19.45
			C722.97,491.04,729.15,497.18,732.96,506.34z"/>
		<path class="st5" d="M738.74,538.52c11.65,2.71,19.05,13.69,19.05,13.69s-11.49,6.59-23.14,3.89
			c-11.65-2.71-20.18-8.84-19.05-13.69C716.73,537.56,727.09,535.82,738.74,538.52z"/>
		<path class="st5" d="M759.19,526.39c3.35,11.48-2.61,23.32-2.61,23.32s-11.38-6.79-14.72-18.27c-3.35-11.48-2.18-21.92,2.61-23.32
			C749.26,506.72,755.85,514.9,759.19,526.39z"/>
		<path class="st5" d="M749.84,562.61c11.96-0.04,21.69,8.95,21.69,8.95s-9.67,9.06-21.63,9.1c-11.96,0.04-21.67-3.97-21.69-8.95
			C728.2,566.72,737.88,562.65,749.84,562.61z"/>
		<path class="st5" d="M764.52,589.2c12.75-0.59,23.54,8.55,23.54,8.55s-9.89,10.1-22.64,10.69c-12.75,0.59-23.29-3.24-23.54-8.55
			S751.77,589.79,764.52,589.2z"/>
		<path class="st5" d="M777.87,615.79c12.63-1.89,24.28,6.11,24.28,6.11s-8.81,11.05-21.44,12.94c-12.63,1.89-23.5-0.85-24.28-6.11
			C755.64,623.47,765.24,617.68,777.87,615.79z"/>
		<path class="st5" d="M792.97,646.07c12.76,0.21,22.95,10.02,22.95,10.02s-10.51,9.46-23.27,9.24
			c-12.76-0.21-23.04-4.7-22.95-10.02C769.79,649.99,780.21,645.86,792.97,646.07z"/>
		<path class="st5" d="M770.69,547.12c-4.72,10.99-0.25,23.46-0.25,23.46s12.12-5.35,16.83-16.35c4.72-10.99,4.83-21.5,0.25-23.46
			C782.94,528.81,775.4,536.13,770.69,547.12z"/>
		<path class="st5" d="M792.77,573.48c-7.23,10.52-5.14,24.51-5.14,24.51s13.8-3.08,21.02-13.6c7.23-10.52,9.53-21.5,5.14-24.51
			C809.41,556.86,800,562.96,792.77,573.48z"/>
		<path class="st5" d="M808.33,598.84c-8.26,9.73-7.61,23.86-7.61,23.86s14.04-1.66,22.3-11.39c8.26-9.73,11.67-20.41,7.61-23.86
			C826.58,584.01,816.59,589.11,808.33,598.84z"/>
		<path class="st5" d="M818.73,631.74c-6.55,10.96-3.59,24.78-3.59,24.78s13.58-3.94,20.12-14.9c6.55-10.96,8.15-22.05,3.59-24.78
			C834.29,614.11,825.28,620.78,818.73,631.74z"/>
		<path class="st5" d="M805.9,677.86c12.45,2.84,20.39,14.53,20.39,14.53s-12.23,7.09-24.68,4.25s-21.58-9.35-20.39-14.53
			C782.41,676.92,793.45,675.02,805.9,677.86z"/>
		<path class="st5" d="M834.06,669.15c-8.67,9.37-8.62,23.51-8.62,23.51s14.1-1.06,22.76-10.43c8.67-9.37,12.53-19.9,8.62-23.51
			C852.92,655.11,842.72,659.78,834.06,669.15z"/>
		<path class="st5" d="M814.02,712.4c12.16,3.89,19.08,16.22,19.08,16.22s-12.79,6.02-24.95,2.13
			c-12.16-3.89-20.7-11.15-19.08-16.22C790.69,709.47,801.86,708.51,814.02,712.4z"/>
		<path class="st5" d="M842.82,706.12c-9.43,8.6-10.59,22.69-10.59,22.69s14.14,0.14,23.57-8.46c9.43-8.6,14.17-18.76,10.59-22.69
			C862.8,693.73,852.25,697.52,842.82,706.12z"/>
		<path class="st6" d="M699.48,500.09c0,0,62.64,33.93,104.43,128.7c41.79,94.77,33.82,184.4,33.82,184.4"/>
	</g>
	<g>
		<path class="st7" d="M1253.52,607.56c-8.12,4.12-11.59,13.58-11.59,13.58s9.69,2.79,17.8-1.33c8.12-4.12,13.31-10.2,11.59-13.58
			C1269.6,602.85,1261.63,603.44,1253.52,607.56z"/>
		<path class="st7" d="M1233.7,626.97c-6.64,1.8-10.67,8.27-10.67,8.27s6.74,3.55,13.38,1.75c6.64-1.8,11.42-5.5,10.67-8.27
			C1246.33,625.96,1240.34,625.17,1233.7,626.97z"/>
		<path class="st7" d="M1228.04,618.12c-3.38,5.99-1.59,13.4-1.59,13.4s7.26-2.31,10.64-8.31c3.38-5.99,4.09-11.99,1.59-13.4
			S1231.41,612.13,1228.04,618.12z"/>
		<path class="st7" d="M1221.4,639.82c-8.25,0.91-14.25,7.86-14.25,7.86s7.37,5.49,15.62,4.58c8.25-0.91,14.63-4.43,14.25-7.86
			C1236.64,640.97,1229.65,638.91,1221.4,639.82z"/>
		<path class="st7" d="M1208.31,629.77c-3.25,7.64-0.13,16.28-0.13,16.28s8.4-3.74,11.65-11.37c3.25-7.64,3.31-14.92,0.13-16.28
			C1216.78,617.04,1211.56,622.14,1208.31,629.77z"/>
		<path class="st7" d="M1211.77,655.49c-8.24-1.01-15.68,4.38-15.68,4.38s5.91,7.04,14.15,8.05c8.24,1.01,15.26-0.95,15.68-4.38
			C1226.34,660.11,1220,656.51,1211.77,655.49z"/>
		<path class="st7" d="M1199.46,672.6c-8.74-1.46-16.92,3.95-16.92,3.95s5.98,7.77,14.72,9.23c8.74,1.46,16.31-0.31,16.92-3.95
			C1214.79,678.2,1208.2,674.06,1199.46,672.6z"/>
		<path class="st7" d="M1188.08,689.83c-8.54-2.34-17.23,2.21-17.23,2.21s5.16,8.34,13.7,10.68s16.26,1.35,17.23-2.21
			C1202.75,696.95,1196.62,692.17,1188.08,689.83z"/>
		<path class="st7" d="M1175.17,709.44c-8.81-0.9-16.64,5.01-16.64,5.01s6.46,7.38,15.27,8.29c8.81,0.9,16.26-1.34,16.64-5.01
			C1190.82,714.05,1183.99,710.34,1175.17,709.44z"/>
		<path class="st7" d="M1198.68,643.11c2.34,7.96-1.76,16.18-1.76,16.18s-7.91-4.69-10.25-12.65s-1.55-15.21,1.76-16.18
			C1191.75,629.49,1196.34,635.15,1198.68,643.11z"/>
		<path class="st7" d="M1181.3,659.45c4.11,7.85,1.52,17.31,1.52,17.31s-9.25-3.26-13.36-11.1c-4.11-7.85-4.79-15.59-1.52-17.31
			C1171.2,646.63,1177.19,651.6,1181.3,659.45z"/>
		<path class="st7" d="M1168.48,675.64c4.89,7.39,3.28,17.06,3.28,17.06s-9.54-2.3-14.42-9.69c-4.89-7.39-6.36-15.03-3.28-17.06
			C1157.14,663.91,1163.6,668.25,1168.48,675.64z"/>
		<path class="st7" d="M1158.61,697.45c3.61,8.09,0.43,17.37,0.43,17.37s-9.03-3.84-12.64-11.92c-3.61-8.09-3.8-15.87-0.43-17.37
			C1149.35,684.02,1155.01,689.36,1158.61,697.45z"/>
		<path class="st7" d="M1163.65,730.28c-8.81,0.93-15.25,8.33-15.25,8.33s7.84,5.89,16.65,4.96c8.81-0.93,15.63-4.66,15.25-8.33
			C1179.91,731.56,1172.46,729.34,1163.65,730.28z"/>
		<path class="st7" d="M1144.97,721.95c5.2,7.17,4,16.91,4,16.91s-9.62-1.89-14.82-9.06c-5.2-7.17-6.99-14.74-4-16.91
			C1133.14,710.73,1139.77,714.78,1144.97,721.95z"/>
		<path class="st7" d="M1155.21,753.4c-8.7,1.68-14.48,9.6-14.48,9.6s8.32,5.2,17.01,3.52c8.7-1.68,15.18-5.98,14.48-9.6
			C1171.52,753.3,1163.9,751.72,1155.21,753.4z"/>
		<path class="st7" d="M1135.89,746.7c5.79,6.7,5.43,16.51,5.43,16.51s-9.75-1.07-15.54-7.77c-5.79-6.7-8.22-14.09-5.43-16.51
			C1123.14,736.52,1130.1,740,1135.89,746.7z"/>
		<path class="st8" d="M1251.61,616.58c0,0-45.95,18.21-82.55,80.05c-36.6,61.84-38.49,124.25-38.49,124.25"/>
	</g>
	<g>
		<path class="st3" d="M1115.48,771.05c0,0-47.09-144.48,23.63-262.1c32.08-53.36,150.68-34.62,73.09,63.17
			C1180.14,612.54,1125.79,656.59,1115.48,771.05z"/>
		<path class="st4" d="M1182.79,525.48c0,0-112.11,137.04-52.74,299.58"/>
	</g>
	<g>
		<path class="st3" d="M1139.23,796.39c0,0,21.78-69.8,82.29-96.25c27.45-12,68.76,28.4,11.08,45.14
			C1208.75,752.21,1175.16,754.35,1139.23,796.39z"/>
		<path class="st9" d="M1234.04,718.8c0,0-82.16,22.53-104.15,102.84"/>
	</g>
	<path class="st10" d="M836.09,339.41l-11.2-12.3c-1.8-1.98-2.68-4.63-2.46-7.3c0.35-4.33-0.31-10.82-1.82-11.06
		c-2.79-0.44-1.25,9.38-4.06,9.73c-0.84,0.1-13.43-18.83-15-17.14c-1.22,1.31,6.94,10.95,6.29,11.43
		c-0.64,0.47-14.79-14.75-15.87-13.51c-1.04,1.21,11.55,15.34,10.28,15.59c-1.86,0.37-11.4-12.1-13.84-10.82
		c-1.64,0.86,12.57,15.47,12.09,16.41c-0.6,1.17-10.36-8.35-11.1-6.9c-1.03,2,17.24,16.63,17.24,16.63l23.17,18.6L836.09,339.41z"/>
	<path class="st11" d="M990.34,296.64c-5.29-21.92-24.98-38.23-48.53-38.23c-2.02,0-4.01,0.13-5.97,0.37
		c-9.25,1.14-18.57,1.5-27.81,0.25c-4.09-0.55-8.65-1.15-13.35-1.77c-22.39-2.92-40.36,18.52-33.29,39.97
		c0.09,0.27,0.18,0.53,0.27,0.79c3.98,11.7,5.88,23.91,6.04,36.27c0.01,1.03,0.06,2.07,0.13,3.11
		c1.71,23.34,20.05,42.72,43.26,45.77c2.98,0.39,5.9,0.51,8.77,0.38c13.37-0.59,26.72,1.24,39.08,6.39
		c5.32,2.21,10.78,3.88,15.16,3.88c27.6,0,49.97-22.37,49.97-49.97C1024.08,321.95,1009.96,303.38,990.34,296.64z"/>
	<path class="st12" d="M1106.67,290.71c0,0-7.75,77.33-19.57,99.85c-9.34,17.8-56.14,57.54-56.14,57.54
		c-6.56,6.72-17.48,6.33-23.54-0.84v0c-4.36-5.16-4.99-12.52-1.56-18.34c0,0,42.68-46.03,49.02-65.47
		c6.01-18.43-0.96-77.54-0.96-77.54c-0.21-17.18,15.65-30.06,32.42-26.32h0C1100.42,262.74,1109.44,276.54,1106.67,290.71z"/>
	<path class="st10" d="M1056.27,713.65l-8.45,11.71c-2.7,3.67-2.6,6.33-0.93,7.97v0c1.68,1.66,4.36,1.71,6.11,0.13l14.03-11.75
		L1056.27,713.65z"/>
	<path class="st13" d="M1025.28,513.31c-42.52,16.75-30.76,74.35-10.73,86.23c29.79,17.67,89.21,10.25,89.25,14.86
		c0.2,19.41-51.62,100.87-51.62,100.87c-0.42,0.78-0.35,1.76,0.24,2.43c3.02,3.42,5.03,5.68,10.47,9.17
		c0.64,0.41,1.51,0.06,2.07-0.46c29.03-27.04,87.97-93.83,94.91-122.61C1171.44,555.77,1033.23,510.18,1025.28,513.31z"/>
	<path class="st11" d="M817.06,694.03c-3.74-8.37-9.33-5.47-19.3-0.31c-9.97,5.15-16.38,10.29-15.05,12.86
		c1.24,2.39,6.57,2.56,17.66,0.88C813.7,705.43,819.5,699.48,817.06,694.03z"/>
	<path class="st10" d="M829.58,691.59l-14.34,1.66c-4.53,0.48-6.42,2.35-6.51,4.69l0,0c-0.09,2.36,1.68,4.38,4.03,4.6l18.13,2.43
		L829.58,691.59z"/>
	<path class="st13" d="M1028.03,520.07c-8.71-8.99-50.04-1.85-50.04-1.85c-42.79,16.05-40.63,53.34-35.89,76.14
		c7.05,33.91-3.8,62.22-7.17,65.36c-14.19,13.24-109.28,29.95-109.28,29.95c-0.86,0.21-1.54,0.93-1.63,1.81
		c-0.48,4.54-0.8,7.55,0.3,13.91c0.13,0.75,0.97,1.16,1.73,1.22c39.55,3.19,119.18,10.15,144.56-5.09
		C1028.74,666.61,1061.13,554.25,1028.03,520.07z"/>
	<path class="st12" d="M1027.79,536.36c13.34-1.68,24.49-11.03,28.37-23.9c5.82-19.31,13.77-50.83,10.15-68.88
		c-3.38-16.84-16.41-48.09-49.09-48.09c-21.8,0-65.79,6.47-62.91,39.92c1.79,20.85,5.37,60.08,21.75,86.34
		c3.07,4.92,7.76,8.65,13.27,10.44C997.85,534.96,1012.22,538.33,1027.79,536.36z"/>
	<path class="st14" d="M1013.37,413.63L1013.37,413.63c-6.32,0-11.44-5.12-11.44-11.44v-37.74h22.87v37.74
		C1024.8,408.51,1019.69,413.63,1013.37,413.63z"/>
	<path class="st15" d="M1022.52,393.83L1022.52,393.83c0.77,0,1.54-0.08,2.29-0.2v-29.17h-22.87v4.26
		C1001.93,380.08,1011.15,393.83,1022.52,393.83z"/>
	<path class="st10" d="M1027.69,385.93L1027.69,385.93c-9.35,3.58-26.22-2.93-29.79-12.28c0,0-7.8-14.15-7.38-19.3
		c1.93-23.78,24.61-19.18,32.89-15.49c4.72,2.11,7.03,16.84,8.35,21.84C1034.32,370.38,1031.77,384.37,1027.69,385.93z"/>
	<path class="st14" d="M987.53,367.63c1.6,4.18,6.24,6.29,10.37,4.71l-5.79-15.13C987.98,358.79,985.93,363.45,987.53,367.63z"/>
	<path class="st14" d="M1023.4,338.86l-28.53,10.91l2.4,6.28c-2.85,1.27-4.24,4.58-3.1,7.57c0.3,0.77,0.74,1.45,1.27,2.01
		c0.6-0.54,1.14-1.13,1.57-1.79c0.91-1.4,2.3-2.39,3.86-3c3.41-1.33,6.11-3.73,7.86-6.73c2.44-4.18,6.45-7.35,11.19-8.34
		c1-0.21,1.99-0.5,2.98-0.88c0.8-0.31,1.65-0.72,2.39-1.12L1023.4,338.86z"/>
	<path class="st11" d="M1004.28,300.77c-6.12,2.54-10.54,7.51-12.56,13.36c-2.12,6.12-6.73,10.94-12.22,14.37
		c-0.06,0.04-0.13,0.08-0.19,0.12c-6.07,3.9-9.3,11.27-7.98,18.36c0.18,0.94,0.42,1.84,0.72,2.71c0.99,2.86,1.54,5.92,1.16,8.92
		c-0.18,1.4-0.03,2.84,0.5,4.24c1.85,4.85,7.55,7.17,12.73,5.2c2.15-0.82,3.85-2.26,4.99-4c1.04-1.6,2.62-2.72,4.4-3.41
		c3.89-1.51,6.96-4.26,8.96-7.68c2.78-4.76,7.35-8.38,12.75-9.51c1.14-0.24,2.27-0.57,3.39-1c11.78-4.51,17.57-17.86,12.7-29.59
		C1029.06,301.9,1015.24,296.22,1004.28,300.77z"/>
	<path class="st12" d="M822.51,367.8c0,0,50.92,47.29,74.01,57.16c16.7,7.14,81.55,13.98,81.55,13.98
		c8.22,2.09,16.67-3.36,18.22-11.75l0,0c1.12-6.04-1.71-12.02-7.06-14.9c0,0-57.58-9.31-73.55-18.46
		c-16.16-9.26-53.64-54.61-53.64-54.61c-14.54-13.98-25.96-15.82-37.52-5.02l0,0C814.8,343.26,810.87,360.57,822.51,367.8z"/>
</g>
</svg>
