<svg xmlns="http://www.w3.org/2000/svg" xmlns:xlink="http://www.w3.org/1999/xlink" viewBox="0 0 109.45 47.88"><defs><style>.cls-1{fill:url(#linear-gradient);}.cls-2{fill:#39ba74;}.cls-3{fill:#244c5c;}.cls-4,.cls-5{fill:none;stroke:#fff;stroke-linecap:round;stroke-linejoin:round;}.cls-4{stroke-width:3px;}.cls-6{font-size:11.35px;fill:#fff;font-family:Montserrat-Bold, Montserrat;font-weight:700;}.cls-7{letter-spacing:0em;}.cls-8{letter-spacing:0.01em;}.cls-9{font-size:4.25px;fill:#2dd7a2;font-family:Montserrat-Light, Montserrat;font-weight:300;}</style><linearGradient id="linear-gradient" y1="5.76" x2="11.52" y2="5.76" gradientUnits="userSpaceOnUse"><stop offset="0" stop-color="#121a24" stop-opacity="0"/><stop offset="0.13" stop-color="#173b3a" stop-opacity="0.17"/><stop offset="0.36" stop-color="#1f725f" stop-opacity="0.47"/><stop offset="0.57" stop-color="#259e7c" stop-opacity="0.7"/><stop offset="0.75" stop-color="#29bd91" stop-opacity="0.86"/><stop offset="0.9" stop-color="#2cd09d" stop-opacity="0.96"/><stop offset="1" stop-color="#2dd7a2"/></linearGradient></defs><title>Asset 4</title><g id="Layer_2" data-name="Layer 2"><g id="OBJECTS"><path class="cls-1" d="M2.7,8.81A6.1,6.1,0,0,1,8.81,2.7h2.71A2.83,2.83,0,0,0,8.7,0H2.83A2.83,2.83,0,0,0,0,2.83V8.7a2.83,2.83,0,0,0,2.7,2.82Z"/><path class="cls-2" d="M8.83,20.64a9.76,9.76,0,0,1,9.76-9.76h6.79V9.94a5,5,0,0,0-5-5H9.94a5,5,0,0,0-5,5V20.37a5,5,0,0,0,3.9,4.88Z"/><rect class="cls-3" x="11.62" y="13.67" width="34.22" height="34.22" rx="8.39"/><path class="cls-2" d="M30.4,30.64a1.72,1.72,0,1,1-1.72-1.72A1.72,1.72,0,0,1,30.4,30.64Z"/><polyline class="cls-4" points="17.53 19.48 28.68 30.77 36.98 30.77"/><line class="cls-5" x1="28.68" y1="30.77" x2="20.85" y2="38.61"/><text class="cls-6" transform="translate(49.32 30.64)">S<tspan class="cls-7" x="7.24" y="0">c</tspan><tspan class="cls-8" x="13.91" y="0">h</tspan><tspan x="21.82" y="0">eduler</tspan></text><text class="cls-9" transform="translate(84.1 34.97)">Be on time</text></g></g></svg>